# xmcd CD database file
#
# Track frame offsets:
#	150
#	33890
#	54052
#	92097
#	124876
#	151593
#	175431
#	205771
#	226711
#	258720
#
# Disc length: 3778 seconds
#
# Revision: 0
# Processed by: cddbd v1.5.1PL0 Copyright (c) Steve Scherf et al.
# Submitted via: CDex 1.51
#
DISCID=740ec00a
DTITLE=Peter Nordwall - Jump highway
DYEAR=2003
DGENRE=Jazz
TTITLE0=The lonely man
TTITLE1=Det snöar i april
TTITLE2=Jumpy highway
TTITLE3=Bomber och granater
TTITLE4=Lo
TTITLE5=Little Eddie
TTITLE6=Equimex
TTITLE7=Minor blues
TTITLE8=A.G.
TTITLE9=Nr. 5
EXTD=YEAR: 2003
EXTT0=
EXTT1=
EXTT2=
EXTT3=
EXTT4=
EXTT5=
EXTT6=
EXTT7=
EXTT8=
EXTT9=
PLAYORDER=
